<?xml version="1.0" encoding="utf-8"?>
<!-- Generator: Adobe Illustrator 16.0.0, SVG Export Plug-In . SVG Version: 6.00 Build 0)  -->
<?xml-stylesheet type="text/css" href="../style/style.css"?>
<!DOCTYPE svg PUBLIC "-//W3C//DTD SVG 1.1//EN" "http://www.w3.org/Graphics/SVG/1.1/DTD/svg11.dtd">
<svg version="1.1" id="Layer_1" xmlns="http://www.w3.org/2000/svg" xmlns:xlink="http://www.w3.org/1999/xlink" x="0px" y="0px"
	 width="100%" height="" viewBox="0 0 700 500" style="enable-background:new 0 0 700 500;" xml:space="preserve">

<style type="text/css">
<![CDATA[
	.st0{opacity:0.6;fill:url(#SVGID_1_);enable-background:new    ;}
	.st1{opacity:0.6;fill:#F69220;enable-background:new    ;}
	.st2{opacity:0.4;fill:#D31C5B;enable-background:new    ;}
	.st3{opacity:0.6;fill:#D31C5B;enable-background:new    ;}
	.st4{opacity:0.6;fill:#FAEC22;enable-background:new    ;}
	.st5{fill:#929497;}
	.st6{fill:#FFFFFF;}
	.st7{fill:#CCCBCB;}
	.st8{display:inline;}
	.st9{display:none;}
	.st10{opacity:0.6;fill:#00A89C;enable-background:new    ;}
	.bulb1-path{fill:#CCCBCB;stroke:#F0D04D;stroke-width:2;stroke-miterlimit:5;}
	.bulb1-path{stroke-dasharray:500;
			stroke-dashoffset:0;
			-webkit-animation: dash 5s linear infinite;
			-moz-animation: dash 5s linear infinite;
			-o-animation: dash 5s linear infinite;
			animation: dash 5s linear infinite;
	
	}
	@-webkit-keyframes dash{
		  from {
    stroke-dashoffset: 500;
  }
  to {
    stroke-dashoffset: 0;
  }
	}
]]>


<defs>

	
</defs>


</style>

	<g class="eleptical-gradient">
		<radialGradient id="SVGID_1_" cx="353.2754" cy="-2496.8887" r="121.3635" gradientTransform="matrix(1.3274 0 0 -0.0769 -123.1543 288.9862)" gradientUnits="userSpaceOnUse">
		<stop  offset="0" style="stop-color:#808080"/>
		<stop  offset="1" style="stop-color:#CCCBCB;stop-opacity:0"/>
		</radialGradient>
	
	
		<ellipse class="st0" cx="345.783" cy="480.974" rx="164.813" ry="10.704"/>
	
	</g><!--eliptical-gradient-->
	
	<g class="total-bulb">
		<g class="bulb1">
			<path class="st7 bulb1-path" d="M343.766,180.636c-39.404,0-71.338,31.933-71.338,71.319c0,18.294,6.899,34.977,18.22,47.6h-0.027
				c0,0,0.107,0.111,0.264,0.266c1.027,1.125,2.091,2.216,3.173,3.281c4.269,4.498,11.557,12.658,16.484,20.582
				c7.334,11.815,3.661,28.48,20.611,28.48h10.778h3.618h10.76c16.958,0,13.295-16.665,20.61-28.48
				c4.727-7.607,11.644-15.431,15.969-20.028c13.658-12.995,22.198-31.345,22.198-51.701
				C415.084,212.568,383.152,180.636,343.766,180.636z M370.338,283.798c-2.343,2.653-6.07,7.143-8.634,11.532
				c-3.952,6.788-1.973,16.404-11.141,16.404h-5.842h-1.937h-5.851c-9.17,0-7.188-9.616-11.152-16.404
				c-2.663-4.57-6.599-9.25-8.933-11.851c-0.572-0.609-1.164-1.236-1.7-1.882c-0.101-0.091-0.156-0.165-0.156-0.165h0.026
				c-6.124-7.27-9.86-16.875-9.86-27.408c0-22.682,17.275-41.067,38.606-41.067s38.597,18.385,38.597,41.067
				C382.362,265.751,377.755,276.31,370.338,283.798z"/>
		</g>
		<g class="bulb2">
			<path class="st7" d="M365.287,358.28c0,2.037-2.119,3.681-4.736,3.681h-33.582c-2.606,0-4.724-1.645-4.724-3.681l0,0
				c0-2.026,2.118-3.672,4.724-3.672h33.582C363.168,354.608,365.287,356.254,365.287,358.28L365.287,358.28z"/>
			<path class="st7" d="M365.287,366.66c0,2.034-2.119,3.679-4.736,3.679h-33.582c-2.606,0-4.724-1.646-4.724-3.679l0,0
				c0-2.036,2.118-3.689,4.724-3.689h33.582C363.168,362.971,365.287,364.624,365.287,366.66L365.287,366.66z"/>
			<path class="st7" d="M365.287,375.021c0,2.035-2.119,3.681-4.736,3.681h-33.582c-2.606,0-4.724-1.646-4.724-3.681l0,0
				c0-2.027,2.118-3.671,4.724-3.671h33.582C363.168,371.349,365.287,372.994,365.287,375.021L365.287,375.021z"/>
			<path class="st7" d="M355.834,379.727c0,4.045-5.461,7.325-12.214,7.325c-6.742,0-12.215-3.28-12.215-7.325H355.834z"/>
		</g>

		</g><!--total-bulb-->
	
	<g class="gallery nav-group" onclick="window.top.location.href='http://www.google.com/';">
			<g class="circle-name">
					<g>
						<circle class="st10" cx="504.283" cy="109.458" r="6.466"/>
						<g>
							<rect x="503.994" y="105.864" class="st6" width="0.863" height="7.761"/>
							<rect x="500.547" y="109.313" class="st6" width="7.76" height="0.863"/>
						</g>
					</g>
				<path class="st5 text" d="M559.063,99.923l-0.213-1.051l-1.817,0.085l2.413,6.557c-0.33,0.379-0.705,0.677-1.12,0.896
				c-0.419,0.217-0.919,0.378-1.506,0.482l-0.07,0.198c0.227,0.445,0.511,0.824,0.852,1.136l0.142,0.014
				c0.965-0.274,1.71-0.651,2.236-1.128c0.525-0.478,0.944-1.162,1.258-2.051l2.143-6.146h-1.633l-0.241,1.178l-1.148,3.506h-0.116
				L559.063,99.923z M556.55,98.9c-0.702,0-1.283,0.426-1.747,1.277h-0.099l0.013-1.292l-1.8,0.157l0.084,3.747l-0.099,2.725h1.888
				l-0.1-2.91v-0.907c0.444-0.701,0.941-1.051,1.49-1.051c0.18,0,0.354,0.033,0.524,0.099l0.184-0.07v-1.747
				C556.739,98.909,556.625,98.9,556.55,98.9z M549.978,101.186l-0.027,0.17l-2.385,0.071c0.084-0.444,0.248-0.788,0.489-1.028
				c0.241-0.242,0.546-0.362,0.915-0.362C549.643,100.036,549.978,100.419,549.978,101.186z M551.283,102.448l0.271-0.269
				c0.036-0.265,0.056-0.525,0.056-0.781c0-0.813-0.221-1.45-0.665-1.909c-0.446-0.459-1.08-0.688-1.902-0.688
				c-1.004,0-1.799,0.307-2.385,0.922c-0.587,0.615-0.88,1.458-0.88,2.527c0,1.06,0.289,1.893,0.872,2.497
				c0.581,0.606,1.397,0.909,2.448,0.909c0.662,0,1.325-0.143,1.987-0.426l0.256-1.391l-0.156-0.099
				c-0.653,0.34-1.286,0.511-1.901,0.511c-1.099,0-1.686-0.596-1.76-1.789L551.283,102.448z M544.342,102.604l0.113-7.054
				l-1.887,0.142l0.085,7.083l-0.101,2.739h1.889L544.342,102.604z M540.609,102.604l0.112-7.054l-1.888,0.142l0.086,7.083
				l-0.101,2.739h1.889L540.609,102.604z M533.611,102.875l1.505-0.326l-0.027,1.05c-0.409,0.435-0.797,0.653-1.164,0.653
				c-0.237,0-0.422-0.068-0.555-0.206c-0.131-0.138-0.199-0.329-0.199-0.575C533.171,103.14,533.318,102.942,533.611,102.875z
				 M534.533,98.787c-0.964,0-1.863,0.265-2.696,0.795l0.214,1.248l0.141,0.085c0.786-0.548,1.462-0.823,2.03-0.823
				c0.605,0,0.909,0.308,0.909,0.923v0.582l-2.173,0.412c-0.974,0.19-1.46,0.743-1.46,1.662c0,0.605,0.192,1.083,0.58,1.433
				c0.389,0.351,0.924,0.53,1.605,0.54c0.501-0.199,0.988-0.55,1.46-1.051h0.1c0.132,0.634,0.497,0.979,1.093,1.036
				c0.389-0.037,0.734-0.156,1.039-0.354l0.17-0.994l-0.143-0.113c-0.152,0.038-0.273,0.056-0.37,0.056
				c-0.123,0-0.209-0.03-0.256-0.092c-0.046-0.061-0.07-0.173-0.07-0.333c0,0.066,0.024-0.444,0.07-1.533
				c0.059-0.909,0.085-1.448,0.085-1.618c0-0.587-0.207-1.044-0.615-1.371C535.834,98.95,535.263,98.787,534.533,98.787z
				 M527.892,96.26c-1.524,0-2.699,0.419-3.526,1.257c-0.828,0.837-1.244,2.046-1.244,3.626c0,1.448,0.359,2.561,1.073,3.336
				c0.714,0.776,1.781,1.165,3.2,1.165c0.955,0,2.001-0.189,3.137-0.569l-0.042-2.228l0.042-1.25l-1.774,0.143l0.028,1.405
				l-0.028,0.78c-0.445,0.133-0.848,0.199-1.207,0.199c-0.577,0-1.041-0.102-1.391-0.305c-0.351-0.204-0.608-0.528-0.773-0.973
				s-0.249-1.045-0.249-1.802c0-1.146,0.193-1.969,0.582-2.47c0.388-0.502,1.002-0.752,1.847-0.752c0.416,0,0.807,0.06,1.169,0.177
				c0.365,0.119,0.778,0.31,1.241,0.575l0.186-0.028l0.412-1.732C529.779,96.445,528.884,96.26,527.892,96.26z"/>
			
			</g>
			<path class="st10 leaf" d="M444.675,102.646h47.134v48.418c0,24.633-18.933,43.844-43.565,43.844h-48.698v-47.414
			C399.545,122.862,420.041,102.646,444.675,102.646z"/>
		
	
			<g class="image">
				<path class="st7" d="M459.761,139.315v20.311h-22.52v-20.311H459.761 M461.638,137.283h-26.273v24.374h26.273V137.283
				L461.638,137.283z M439.117,155.564h18.768l-3.753-12.187l-5.632,8.125l-3.753-4.063L439.117,155.564z M440.994,143.377
				c-1.037,0-1.877,0.909-1.877,2.03c0,1.123,0.84,2.032,1.877,2.032s1.876-0.909,1.876-2.032
				C442.87,144.286,442.031,143.377,440.994,143.377z M431.611,133.222v24.373h1.877v-22.342h24.396v-2.031H431.611z"/>
			</g>
		
	</g><!--gallery--> 
	
	<g class="contact-us nav-group" onclick="window.top.location.href='../index.html #page5';">
     		<g class="circle-name">
				<circle class="st1" cx="504.283" cy="394.189" r="6.466"/>
				<g>
					<rect x="503.994" y="390.596" class="st6" width="0.863" height="7.76"/>
					<rect x="500.547" y="394.045" class="st6" width="7.76" height="0.861"/>
				</g>
			
				<path class="st5 text" d="M581.468,392.15c-0.796,0-1.424,0.195-1.888,0.587c-0.465,0.395-0.695,0.898-0.695,1.513
					c0,0.377,0.088,0.696,0.262,0.949c0.176,0.258,0.387,0.454,0.633,0.59c0.245,0.139,0.563,0.291,0.951,0.462
					c0.378,0.151,0.656,0.29,0.829,0.412c0.177,0.124,0.264,0.283,0.264,0.482c0,0.18-0.071,0.334-0.213,0.462
					c-0.143,0.127-0.341,0.191-0.597,0.191c-0.274,0-0.592-0.074-0.951-0.221s-0.686-0.343-0.979-0.589l-0.184,0.115l-0.213,1.476
					c0.728,0.284,1.434,0.425,2.114,0.425c0.577,0,1.064-0.102,1.462-0.305s0.692-0.469,0.887-0.795
					c0.192-0.327,0.291-0.679,0.291-1.059c0-0.371-0.087-0.679-0.264-0.931c-0.174-0.25-0.385-0.445-0.632-0.587
					c-0.245-0.143-0.557-0.288-0.937-0.44c-0.378-0.151-0.653-0.289-0.829-0.412c-0.174-0.124-0.263-0.283-0.263-0.482
					c0-0.171,0.065-0.315,0.198-0.432c0.131-0.121,0.313-0.178,0.539-0.178c0.463,0,0.98,0.184,1.549,0.553l0.225-0.07l0.256-1.392
					C582.719,392.258,582.111,392.15,581.468,392.15z M577.479,394.364l0.073-4.642h-1.96l0.1,5.762
					c0.009,1.287-0.602,1.932-1.831,1.932c-1.221,0-1.826-0.678-1.817-2.03l0.1-5.663h-1.931l0.043,4.598l-0.017,1.321
					c-0.026,1.08,0.263,1.905,0.867,2.483c0.604,0.579,1.485,0.866,2.64,0.866c1.203,0,2.126-0.298,2.768-0.894
					c0.645-0.596,0.961-1.439,0.951-2.527L577.479,394.364z M563.783,397.472c-0.265,0-0.455-0.063-0.566-0.19
					c-0.111-0.129-0.171-0.344-0.171-0.647l0.085-3.178h1.689l0.084-1.037l-0.057-0.1h-1.689l0.044-1.534l-0.129-0.112l-1.718,0.553
					v1.094h-0.837l-0.1,1.037l0.073,0.1h0.879l0.015,2.439l-0.072,1.177c0,1.116,0.64,1.742,1.916,1.875
					c0.503-0.057,0.995-0.21,1.476-0.455l0.187-1.12l-0.157-0.143C564.402,397.394,564.085,397.472,563.783,397.472z M558.362,392.134
					c-0.995,0-1.769,0.312-2.329,0.932c-0.559,0.618-0.838,1.479-0.838,2.576c0,1.061,0.256,1.886,0.768,2.476
					c0.509,0.592,1.22,0.888,2.128,0.888c0.596,0,1.179-0.09,1.747-0.271l0.184-1.462l-0.143-0.113
					c-0.519,0.238-0.992,0.355-1.417,0.355c-0.474,0-0.838-0.176-1.095-0.525c-0.256-0.35-0.382-0.855-0.382-1.519
					c0-0.577,0.118-1.021,0.355-1.333c0.236-0.313,0.57-0.47,1.006-0.47c0.38,0,0.813,0.133,1.293,0.397l0.158-0.071l0.312-1.504
					C559.605,392.254,559.023,392.134,558.362,392.134z M550.498,396.225l1.503-0.328l-0.026,1.05
					c-0.408,0.436-0.795,0.654-1.164,0.654c-0.237,0-0.421-0.069-0.554-0.205c-0.132-0.139-0.197-0.331-0.197-0.575
					C550.06,396.487,550.206,396.289,550.498,396.225z M551.42,392.134c-0.965,0-1.864,0.267-2.695,0.796l0.213,1.25l0.142,0.086
					c0.785-0.552,1.46-0.825,2.029-0.825c0.605,0,0.909,0.309,0.909,0.924v0.582l-2.172,0.411c-0.975,0.189-1.461,0.742-1.461,1.661
					c0,0.605,0.193,1.083,0.581,1.433c0.389,0.352,0.923,0.53,1.604,0.54c0.503-0.198,0.988-0.55,1.462-1.051h0.1
					c0.131,0.633,0.497,0.979,1.093,1.037c0.389-0.039,0.733-0.157,1.036-0.356l0.171-0.994l-0.142-0.113
					c-0.151,0.036-0.274,0.057-0.371,0.057c-0.121,0-0.207-0.029-0.255-0.092c-0.047-0.062-0.071-0.174-0.071-0.333
					c0,0.067,0.024-0.445,0.071-1.534c0.058-0.911,0.086-1.447,0.086-1.617c0-0.587-0.207-1.045-0.618-1.369
					C552.72,392.299,552.149,392.134,551.42,392.134z M546.694,397.472c-0.267,0-0.455-0.063-0.568-0.19
					c-0.111-0.129-0.17-0.344-0.17-0.647l0.083-3.178h1.691l0.084-1.037l-0.057-0.1h-1.688l0.042-1.534l-0.128-0.112l-1.718,0.553
					v1.094h-0.838l-0.1,1.037l0.073,0.1h0.88l0.015,2.439l-0.07,1.177c0,1.116,0.638,1.742,1.913,1.875
					c0.505-0.057,0.996-0.21,1.477-0.455l0.185-1.12l-0.155-0.143C547.314,397.394,546.998,397.472,546.694,397.472z M540.477,398.864
					h1.89l-0.072-2.896l0.043-1.888c0.008-0.614-0.172-1.086-0.546-1.412c-0.374-0.327-0.922-0.49-1.64-0.49
					c-0.606,0.199-1.179,0.539-1.718,1.021h-0.085v-0.966l-1.803,0.157l0.084,3.749l-0.1,2.726h1.891l-0.086-2.911v-1.647
					c0.482-0.408,0.938-0.609,1.363-0.609c0.597,0,0.894,0.351,0.894,1.051L540.477,398.864z M532.146,393.412
					c0.464,0,0.803,0.188,1.014,0.563c0.211,0.373,0.32,0.99,0.32,1.852c0,0.68-0.103,1.169-0.307,1.468
					c-0.203,0.297-0.532,0.447-0.986,0.447c-0.472,0-0.813-0.186-1.021-0.554c-0.209-0.371-0.313-0.988-0.313-1.858
					c0-0.672,0.103-1.159,0.308-1.462C531.362,393.564,531.69,393.412,532.146,393.412z M532.273,392.134
					c-1.032,0-1.822,0.306-2.371,0.916c-0.548,0.61-0.823,1.494-0.823,2.647c0,1.067,0.256,1.888,0.767,2.454
					c0.51,0.567,1.249,0.853,2.216,0.853c1.03,0,1.82-0.305,2.368-0.913c0.551-0.612,0.824-1.495,0.824-2.648
					c0-1.069-0.258-1.887-0.767-2.456C533.978,392.419,533.239,392.134,532.273,392.134z M526.312,389.609
					c-1.391,0-2.468,0.417-3.229,1.248c-0.761,0.834-1.143,2.007-1.143,3.521c0,1.486,0.358,2.628,1.071,3.422
					c0.716,0.796,1.752,1.192,3.115,1.192c0.796,0,1.553-0.165,2.271-0.496l0.157-1.634l-0.171-0.099
					c-0.644,0.406-1.345,0.61-2.103,0.61c-1.541,0-2.312-1.067-2.312-3.207c0-1.978,0.753-2.966,2.257-2.966
					c0.729,0,1.391,0.212,1.986,0.637l0.158-0.071l0.339-1.604C528,389.794,527.201,389.609,526.312,389.609z"/>


				</g>
				<path class="st1 leaf" d="M399.545,356.471v-48.008h48.699c24.633,0,43.564,19.807,43.564,44.438v47.825h-47.134
				C420.041,400.727,399.545,381.104,399.545,356.471z"/>
		
				<g class="image">
				<path class="st7" d="M430.3,344.729v1.243v18.024v1.245h31.08v-1.245v-18.024v-1.243H430.3z M443.159,347.856
					c0.286-0.524,0.679-0.915,1.176-1.177c0.496-0.264,1.06-0.397,1.699-0.397c0.54,0,1.024,0.111,1.449,0.321
					c0.421,0.214,0.737,0.514,0.96,0.902c0.222,0.391,0.34,0.813,0.34,1.273c0,0.549-0.169,1.041-0.505,1.486
					c-0.425,0.557-0.97,0.845-1.632,0.845c-0.179,0-0.319-0.034-0.41-0.1c-0.087-0.061-0.146-0.148-0.173-0.27
					c-0.253,0.243-0.544,0.369-0.874,0.369c-0.356,0-0.658-0.122-0.893-0.369c-0.234-0.248-0.349-0.583-0.349-0.99
					c0-0.509,0.133-0.964,0.415-1.381c0.345-0.508,0.784-0.767,1.322-0.767c0.382,0,0.672,0.143,0.855,0.437l0.076-0.349h0.855
					l-0.484,2.311c-0.03,0.146-0.048,0.238-0.048,0.283c0,0.054,0.013,0.096,0.035,0.124c0.025,0.027,0.056,0.039,0.089,0.039
					c0.106,0,0.236-0.061,0.398-0.185c0.221-0.161,0.4-0.389,0.535-0.662c0.137-0.274,0.203-0.566,0.203-0.863
					c0-0.528-0.19-0.973-0.573-1.331c-0.383-0.353-0.916-0.533-1.602-0.533c-0.583,0-1.072,0.118-1.476,0.36
					c-0.404,0.233-0.716,0.577-0.925,1.01c-0.204,0.431-0.301,0.88-0.301,1.352c0,0.45,0.103,0.869,0.329,1.243
					c0.232,0.374,0.561,0.633,0.974,0.805c0.413,0.171,0.885,0.265,1.415,0.265c0.517,0,0.961-0.069,1.33-0.215
					c0.371-0.144,0.668-0.362,0.896-0.65h0.679c-0.213,0.436-0.547,0.777-0.991,1.031c-0.51,0.282-1.124,0.426-1.854,0.426
					c-0.712,0-1.33-0.12-1.847-0.359c-0.518-0.238-0.894-0.591-1.146-1.06c-0.252-0.47-0.379-0.984-0.379-1.534
					C442.73,348.942,442.873,348.38,443.159,347.856z M460.137,346.736l-9.333,7.946l9.333,8.791v0.521h-1.254l-9.031-8.497
					l-4.015,3.408l-4.009-3.408l-9.033,8.497h-1.253v-0.521l9.333-8.791l-9.333-7.946v-0.765h1.017l13.277,11.303l13.281-11.303h1.018
					v0.765H460.137z"/>
				</g>

	</g><!--contact-us-->
	<g class="events nav-group" onclick="window.top.location.href='http://www.google.com/';">
		<g class="circle-name">
			<circle class="st4" cx="349.744" cy="29.418" r="6.466"/>
			<g>
				<rect x="349.456" y="25.825" class="st6" width="0.861" height="7.761"/>
				<rect x="346.008" y="29.273" class="st6" width="7.758" height="0.863"/>
			</g>
			<path class="st5 text" d="M401.689,19.55c-0.795,0-1.423,0.197-1.888,0.589c-0.463,0.394-0.695,0.896-0.695,1.512
			c0,0.379,0.087,0.696,0.263,0.951c0.175,0.255,0.386,0.452,0.632,0.589c0.245,0.137,0.564,0.292,0.951,0.461
			c0.378,0.151,0.656,0.288,0.83,0.411c0.176,0.124,0.265,0.284,0.265,0.483c0,0.179-0.072,0.333-0.216,0.461
			c-0.142,0.127-0.34,0.191-0.595,0.191c-0.272,0-0.592-0.073-0.952-0.22c-0.358-0.146-0.685-0.343-0.978-0.589l-0.187,0.114
			l-0.212,1.477c0.729,0.283,1.434,0.425,2.114,0.425c0.578,0,1.064-0.101,1.463-0.305c0.397-0.203,0.693-0.469,0.887-0.794
			c0.192-0.327,0.291-0.679,0.291-1.057c0-0.369-0.087-0.68-0.264-0.93c-0.174-0.25-0.387-0.447-0.633-0.589
			c-0.245-0.142-0.558-0.288-0.937-0.44c-0.376-0.151-0.654-0.288-0.829-0.412c-0.174-0.123-0.264-0.284-0.264-0.482
			c0-0.17,0.067-0.315,0.199-0.433c0.134-0.118,0.314-0.177,0.539-0.177c0.465,0,0.98,0.185,1.549,0.553l0.226-0.07l0.256-1.392
			C402.939,19.658,402.334,19.55,401.689,19.55z M397.348,24.874c-0.266,0-0.455-0.064-0.567-0.192
			c-0.111-0.127-0.171-0.343-0.171-0.645l0.084-3.18h1.69l0.085-1.037l-0.058-0.099h-1.688l0.043-1.533l-0.128-0.114l-1.718,0.553
			v1.094h-0.838l-0.1,1.036l0.073,0.1h0.878l0.016,2.441l-0.071,1.178c0,1.117,0.639,1.741,1.915,1.874
			c0.502-0.057,0.994-0.208,1.476-0.454l0.186-1.121l-0.155-0.143C397.967,24.793,397.65,24.874,397.348,24.874z M391.129,26.263
			h1.891l-0.072-2.895l0.042-1.889c0.009-0.615-0.173-1.085-0.547-1.412s-0.921-0.49-1.639-0.49
			c-0.608,0.199-1.179,0.54-1.718,1.022H389v-0.965l-1.801,0.157l0.084,3.747l-0.1,2.725h1.89l-0.086-2.91v-1.646
			c0.483-0.407,0.938-0.611,1.362-0.611c0.598,0,0.896,0.35,0.896,1.05L391.129,26.263z M384.26,21.934l-0.028,0.171l-2.385,0.07
			c0.084-0.445,0.248-0.788,0.49-1.029c0.24-0.241,0.546-0.361,0.913-0.361C383.924,20.785,384.26,21.167,384.26,21.934z
			 M385.565,23.198l0.271-0.27c0.038-0.265,0.058-0.525,0.058-0.781c0-0.813-0.224-1.449-0.668-1.908
			c-0.445-0.459-1.078-0.689-1.9-0.689c-1.003,0-1.8,0.308-2.387,0.923c-0.585,0.615-0.879,1.457-0.879,2.527
			c0,1.06,0.291,1.892,0.873,2.498c0.582,0.605,1.398,0.908,2.448,0.908c0.662,0,1.324-0.142,1.986-0.425l0.256-1.391l-0.156-0.1
			C384.814,24.83,384.18,25,383.565,25c-1.097,0-1.684-0.595-1.76-1.788L385.565,23.198z M375.644,20.713l-0.187-1.093l-1.758,0.085
			l1.875,6.558h2.028l2.215-6.601h-1.649l-0.238,1.15l-1.194,3.676h-0.1L375.644,20.713z M373.443,24.674l-2.256,0.084l-1.604-0.014
			l-0.042-1.376l0.015-0.979l1.462-0.015l1.618,0.042l0.128-1.433l-0.116-0.143l-1.489,0.042l-1.576-0.027l0.043-2.201l1.646-0.014
			l2.187,0.071l0.143-1.434l-0.115-0.156h-5.79l0.099,6.416l-0.099,2.725h5.736l0.126-1.434L373.443,24.674z"/>
			
		
		</g>
				<path class="st4 leaf" d="M309.695,75.199l34.062-34.062l34.061,34.062c17.421,17.418,17.421,45.66,0,63.079l-34.061,34.061
		l-34.062-34.061C292.275,120.859,292.275,92.618,309.695,75.199z"/>
		

			<g class="image">
			<path class="st7" d="M341.98,96.727l2.054,3.159l-3.713,2.588l-2.114-3.251l-2.981,1.756l-1.85-2.841l2.988-1.756l1.849,2.838
			L341.98,96.727z M342.17,105.313l-1.842-2.838l-2.99,1.756l1.843,2.84L342.17,105.313z M359.27,99.159l-0.331,0.679
			c-0.592,3.107-2.617,5.19-4.12,6.074c-3.257,1.916-6.632,0.767-6.771,0.72c-2.188-0.441-4.143-0.188-5.758,0.762
			c-2.986,1.759-3.839,5.363-3.844,5.403l-0.198,0.886l11.836,18.211l-1.916,1.132l-21.079-32.431
			c-0.405,0.151-0.879,0.026-1.116-0.338c-0.27-0.416-0.133-0.954,0.299-1.212l1.585-0.929c0.43-0.256,1-0.128,1.27,0.287
			c0.224,0.346,0.151,0.769-0.127,1.054l0.568,0.879l0.015-0.028c1.237-2.859,2.816-4.865,4.683-5.961
			c3.388-1.995,6.486-0.335,6.617-0.264c2.65,1.47,4.535,0.997,5.649,0.339c0.479-0.281,0.73-0.555,0.73-0.555

			c2.616-2.185,3.669-4.658,4.132-5.563c0.462-0.904,1.288,0.833,1.288,0.833L359.27,99.159z M351.006,90.67l0.477,0.735l1.172-0.87
			l-0.937-1.438C351.525,89.458,351.351,90.119,351.006,90.67z M338.199,111.082l-0.54,0.317l0.257,0.386
			C337.987,111.582,338.086,111.337,338.199,111.082z M347.903,105.839l-0.41-0.633l-0.403,0.518
			C347.358,105.751,347.631,105.787,347.903,105.839z M350.798,103.935l-1.615-2.48l3.272-2.198l-1.848-2.839l-3.266,2.2l-1.919-2.945
			c-0.383,0.086-0.813,0.14-1.284,0.135l-2.153,0.922l-1.184-1.813c-0.107-0.057-0.214-0.109-0.33-0.172
			c-0.033-0.019-0.32-0.17-0.789-0.32l-3.32,1.956l-1.099-1.686c-0.187,0.085-0.385,0.188-0.581,0.303
			c-0.764,0.45-1.472,1.082-2.132,1.869l0.826,1.273l-2.621,1.54c-0.118,0.243-0.232,0.48-0.351,0.738l1.615,2.447l3.205-1.886
			l2.112,3.25l-3.177,1.871l1.866,2.826l3.154-1.854l0.804,1.228c0.517-0.574,1.135-1.117,1.885-1.562
			c0.3-0.174,0.613-0.319,0.93-0.456l-0.628-0.971l3.728-2.556l-1.864-2.87l3.301-1.266l1.844,2.836l-3.279,1.3l1.531,2.349
			L350.798,103.935z M358.08,98.803l-0.046-0.075l-1.147,0.992l-1.595-2.446l1.2-0.888l-1.989-3.03l-1.06,1.076l-1.959-3.021
			l-1.732,1.016c-0.302,0.384-0.638,0.758-0.999,1.129l1.856,2.858l2.837-1.985l1.846,2.844l-2.835,1.982l1.614,2.483l-3.189,2.331
			l1.316,2.021c0.714-0.142,1.459-0.395,2.194-0.828c0.468-0.276,0.907-0.614,1.316-1.002l-1.639-2.52l2.815-2.02l0.937,1.442
			L358.08,98.803z"/>
			</g>
				
	</g><!--events-->
	<g class="home nav-group" onclick="window.top.location.href='http://www.google.com/';">
			<g class="circle-name">
				<circle class="st10" cx="179.981" cy="394.189" r="6.466"/>
				<g>
					<rect x="179.697" y="390.596" class="st6" width="0.862" height="7.76"/>
					<rect x="176.248" y="394.042" class="st6" width="7.758" height="0.863"/>
				</g>
			
				<path class="st5 text" d="M165.014,394.534l-0.028,0.171l-2.385,0.072c0.084-0.445,0.248-0.788,0.49-1.03
					c0.24-0.24,0.546-0.361,0.914-0.361C164.676,393.385,165.014,393.769,165.014,394.534z M166.319,395.798l0.27-0.27
					c0.037-0.268,0.057-0.526,0.057-0.78c0-0.815-0.222-1.453-0.667-1.911c-0.444-0.457-1.079-0.687-1.901-0.687
					c-1.004,0-1.799,0.307-2.385,0.923c-0.587,0.613-0.88,1.454-0.88,2.525c0,1.06,0.291,1.894,0.873,2.499
					c0.582,0.604,1.397,0.907,2.449,0.907c0.662,0,1.325-0.141,1.987-0.425l0.255-1.392l-0.156-0.1
					c-0.653,0.341-1.287,0.512-1.902,0.512c-1.098,0-1.685-0.596-1.759-1.788L166.319,395.798z M157.846,394.748l-0.1,4.114h1.874
					l-0.072-2.895l0.042-1.89c0.01-0.615-0.173-1.085-0.547-1.41c-0.374-0.328-0.92-0.49-1.639-0.49
					c-0.672,0.208-1.288,0.563-1.847,1.063h-0.071c-0.293-0.712-0.975-1.063-2.045-1.063c-0.605,0.199-1.177,0.539-1.716,1.021h-0.085
					v-0.966l-1.789,0.156l0.085,3.749l-0.1,2.726h1.874l-0.084-2.911v-1.66c0.481-0.398,0.937-0.596,1.362-0.596
					c0.606,0,0.91,0.351,0.91,1.051l-0.115,4.116h1.873l-0.071-2.896l0.028-1.689c0.473-0.388,0.923-0.581,1.35-0.581
					C157.571,393.697,157.865,394.048,157.846,394.748z M145.454,393.412c0.463,0,0.802,0.188,1.014,0.563
					c0.211,0.373,0.32,0.99,0.32,1.852c0,0.68-0.102,1.169-0.306,1.468c-0.204,0.297-0.531,0.447-0.986,0.447
					c-0.472,0-0.814-0.186-1.021-0.554c-0.209-0.371-0.313-0.988-0.313-1.858c0-0.672,0.102-1.159,0.307-1.462
					C144.67,393.564,145,393.412,145.454,393.412z M145.582,392.134c-1.032,0-1.822,0.306-2.371,0.916s-0.823,1.494-0.823,2.647
					c0,1.067,0.256,1.888,0.767,2.454c0.51,0.567,1.249,0.853,2.214,0.853c1.031,0,1.821-0.305,2.37-0.913
					c0.549-0.612,0.823-1.495,0.823-2.648c0-1.069-0.257-1.887-0.767-2.456C147.286,392.419,146.547,392.134,145.582,392.134z
					 M141.041,395.968l0.114-6.244h-1.974l0.071,3.762l-1.915,0.041l-1.959-0.041l0.071-3.762h-1.959l0.1,6.416l-0.1,2.726h1.932
					l-0.085-2.896l0.015-0.881l1.859-0.041l2.073,0.027l0.014,1.064l-0.114,2.726h1.945L141.041,395.968z"/>
				
			 </g>
			<path class="st10 leaf" d="M239.266,308.463h49.091v48.008c0,24.634-20.888,44.256-45.521,44.256h-47.925v-47.825
			C194.911,328.27,214.634,308.463,239.266,308.463z"/>
			
		
			<g class="image">
					<path class="st7" d="M253.854,354.549l-14.448-12.726c-0.362-0.321-0.899-0.321-1.262,0l-4.112,4.534l-1.038-1.838
						c0-1.08-0.862-1.958-1.926-1.958c-1.062,0-1.925,0.878-1.925,1.958v5.229l-5.447,4.801c-0.401,0.353-0.444,0.973-0.097,1.382
						c0.352,0.409,0.958,0.452,1.361,0.098l13.814-12.169l13.817,12.169c0.182,0.161,0.406,0.239,0.631,0.239
						c0.269,0,0.535-0.115,0.726-0.337C254.297,355.521,254.25,354.907,253.854,354.549z"/>
					<path class="st7" d="M241.03,348.881c-0.353-0.296-1.825-0.443-2.258-0.443c-0.434,0-0.867,0.147-1.221,0.443l-9.632,8.025
						c-0.447,0.371-0.705,0.925-0.705,1.513v9.595c0,1.079,0.864,1.958,1.926,1.958h5.779v-9.791h7.707v9.792h5.78
						c1.061,0,1.925-0.879,1.925-1.957v-9.595c0-0.59-0.259-1.144-0.708-1.513L241.03,348.881z"/>
			</g>
	</g><!--home-->
	
	
	<g class="about-us nav-group" onclick="window.top.location.href='http://www.google.com/';">
			<g class="circle-name">
				<circle class="st2" cx="117.883" cy="251.795" r="6.466"/>
				<g>
					<rect x="117.599" y="248.202" class="st6" width="0.862" height="7.761"/>
					<rect x="114.15" y="251.649" class="st6" width="7.758" height="0.863"/>
				</g>
				<path class="st5 text" d="M96.26,249.025c-0.795,0-1.424,0.196-1.888,0.589c-0.464,0.394-0.696,0.896-0.696,1.512
					c0,0.379,0.088,0.695,0.263,0.95c0.175,0.256,0.385,0.452,0.631,0.59c0.247,0.136,0.564,0.291,0.953,0.461
					c0.377,0.154,0.655,0.288,0.829,0.412c0.176,0.123,0.265,0.284,0.265,0.483c0,0.179-0.073,0.333-0.214,0.462
					c-0.143,0.126-0.341,0.191-0.597,0.191c-0.273,0-0.591-0.075-0.951-0.221c-0.359-0.147-0.686-0.344-0.979-0.589l-0.185,0.113
					l-0.212,1.477c0.729,0.284,1.434,0.425,2.115,0.425c0.577,0,1.064-0.102,1.461-0.305c0.397-0.204,0.693-0.469,0.887-0.795
					c0.193-0.326,0.292-0.68,0.292-1.06c0-0.368-0.088-0.677-0.265-0.929c-0.173-0.249-0.385-0.448-0.631-0.59
					c-0.247-0.142-0.558-0.288-0.938-0.44c-0.377-0.15-0.655-0.288-0.829-0.411c-0.175-0.123-0.264-0.283-0.264-0.482
					c0-0.171,0.067-0.314,0.198-0.433c0.133-0.119,0.314-0.178,0.54-0.178c0.463,0,0.979,0.185,1.548,0.553l0.226-0.07l0.255-1.391
					C97.509,249.132,96.903,249.025,96.26,249.025z M92.271,251.237l0.072-4.64h-1.958l0.099,5.761
					c0.01,1.288-0.601,1.932-1.831,1.932c-1.221,0-1.826-0.677-1.817-2.03l0.1-5.663h-1.931l0.042,4.598l-0.015,1.32
					c-0.028,1.08,0.261,1.906,0.865,2.483c0.606,0.578,1.486,0.866,2.64,0.866c1.202,0,2.125-0.297,2.768-0.894
					c0.644-0.596,0.961-1.438,0.952-2.527L92.271,251.237z M78.575,254.348c-0.266,0-0.455-0.064-0.567-0.192
					c-0.114-0.126-0.17-0.344-0.17-0.646l0.084-3.18h1.69l0.084-1.037l-0.058-0.098H77.95l0.041-1.533l-0.127-0.115l-1.717,0.553
					v1.094h-0.838l-0.099,1.036l0.071,0.099h0.88l0.015,2.441l-0.071,1.179c0,1.117,0.639,1.74,1.915,1.874
					c0.502-0.058,0.995-0.209,1.476-0.454l0.184-1.121l-0.155-0.143C79.194,254.268,78.877,254.348,78.575,254.348z M73.978,254.021
					l0.113-4.91l-1.788,0.157v4.485c-0.426,0.369-0.837,0.554-1.235,0.554c-0.568,0-0.853-0.334-0.853-1.009l0.058-4.187l-1.832,0.157
					l0.072,2.98l-0.043,1.676c0,0.615,0.19,1.086,0.568,1.412c0.377,0.324,0.921,0.489,1.631,0.489
					c0.567-0.171,1.121-0.516,1.66-1.037h0.142c0.161,0.655,0.539,1.009,1.136,1.065c0.388-0.037,0.733-0.158,1.037-0.356l0.17-0.994
					l-0.142-0.113c-0.151,0.038-0.274,0.059-0.37,0.059c-0.123,0-0.209-0.03-0.255-0.093C74,254.292,73.978,254.182,73.978,254.021z
					 M64.098,250.288c0.463,0,0.802,0.187,1.014,0.56c0.211,0.374,0.321,0.99,0.321,1.853c0,0.682-0.102,1.171-0.308,1.47
					c-0.203,0.298-0.53,0.445-0.986,0.445c-0.472,0-0.813-0.185-1.021-0.553c-0.209-0.371-0.313-0.988-0.313-1.859
					c0-0.672,0.102-1.159,0.307-1.462C63.315,250.438,63.643,250.288,64.098,250.288z M64.226,249.009
					c-1.032,0-1.822,0.307-2.371,0.916c-0.549,0.61-0.823,1.493-0.823,2.647c0,1.068,0.257,1.888,0.766,2.455
					c0.51,0.567,1.249,0.852,2.214,0.852c1.032,0,1.822-0.305,2.371-0.915c0.549-0.608,0.823-1.491,0.823-2.646
					c0-1.069-0.257-1.888-0.767-2.456C65.929,249.293,65.191,249.009,64.226,249.009z M56.93,254.646
					c-0.303,0-0.628-0.085-0.979-0.257l-0.028-1.602l0.028-1.62c0.424-0.397,0.832-0.597,1.22-0.597c0.841,0,1.263,0.667,1.263,2.002
					C58.435,253.955,57.933,254.646,56.93,254.646z M57.626,249.052c-0.539,0.199-1.069,0.54-1.591,1.022h-0.071l0.057-4.3
					l-1.888,0.142l0.099,7.111l-0.114,2.697l0.227,0.184l1.008-0.354c0.577,0.217,1.108,0.324,1.59,0.324
					c1.012,0,1.809-0.315,2.391-0.943c0.582-0.629,0.873-1.526,0.873-2.689c0-1.003-0.222-1.787-0.667-2.351
					C59.096,249.332,58.458,249.052,57.626,249.052z M50.302,252.204l-1.235,0.029l-1.221-0.029l1.249-3.804h0.127L50.302,252.204z
					 M53.14,255.738l-2.796-9.141h-2.285l-3.095,9.141h1.902l0.241-1.291l0.241-0.754l1.576-0.042l1.789,0.042l0.241,0.854
					l0.226,1.191H53.14z"/>

			</g>
			<path class="st3 leaf" d="M230.051,217.922l34.06,34.061l-34.06,34.063c-17.421,17.418-45.662,17.418-63.08,0l-34.062-34.063
			l34.062-34.061C184.389,200.503,212.629,200.503,230.051,217.922z"/>
		
			<g class="image">
					<path class="st7" d="M193.642,250.959c2.963,0,5.344-2.488,5.344-5.548c0.004-3.067-2.38-5.551-5.344-5.551
					c-2.94,0-5.328,2.484-5.328,5.551C188.314,248.474,190.702,250.959,193.642,250.959z"/>
				<path class="st7" d="M197.929,251.863h-8.557c-1.531,0-2.783,1.46-2.783,3.249v8.938c0,0.098,0.047,0.185,0.053,0.288h14.013
					c0.009-0.104,0.05-0.19,0.05-0.288v-8.938C200.708,253.323,199.456,251.863,197.929,251.863z"/>
				<path class="st7" d="M208.014,253.608c2.375,0,4.285-1.99,4.285-4.447c0-2.457-1.91-4.452-4.285-4.452
					c-2.36,0-4.271,1.995-4.271,4.452C203.74,251.617,205.654,253.608,208.014,253.608z"/>
				<path class="st7" d="M211.45,254.337h-6.859c-1.229,0-2.235,1.169-2.235,2.605v7.162c0,0.078,0.037,0.151,0.042,0.233h11.238
					c0.006-0.082,0.041-0.155,0.041-0.233v-7.162C213.68,255.503,212.677,254.337,211.45,254.337z"/>
				<path class="st7" d="M179.279,253.608c2.374,0,4.283-1.99,4.283-4.447c0-2.457-1.909-4.452-4.283-4.452
					c-2.362,0-4.273,1.995-4.273,4.452C175.006,251.618,176.918,253.608,179.279,253.608L179.279,253.608z"/>
				<path class="st7" d="M182.714,254.337h-6.865c-1.227,0-2.229,1.166-2.229,2.605v7.162c0,0.078,0.035,0.151,0.043,0.233h11.238
					c0.005-0.082,0.039-0.155,0.039-0.233v-7.162C184.943,255.503,183.939,254.337,182.714,254.337z"/>
			</g>
	</g><!--about-us-->
	<g class="latest nav-group" onclick="window.top.location.href='http://www.google.com/';">
		<g class="circle-name">
			<circle class="st1" cx="182.546" cy="109.458" r="6.466"/>
			<g>
				<rect x="182.261" y="105.865" class="st6" width="0.862" height="7.761"/>
				<rect x="178.812" y="109.313" class="st6" width="7.758" height="0.863"/>
			</g>
			<path class="st5 text" d="M163.315,110.039c-0.267,0-0.456-0.064-0.568-0.192c-0.113-0.127-0.171-0.343-0.171-0.645l0.084-3.18h1.69
				l0.084-1.036l-0.057-0.1h-1.689l0.043-1.533l-0.127-0.114l-1.718,0.553v1.094h-0.837l-0.1,1.036l0.073,0.1h0.88l0.013,2.441
				l-0.07,1.179c0,1.116,0.639,1.74,1.915,1.873c0.503-0.057,0.995-0.208,1.476-0.454l0.186-1.122l-0.157-0.142
				C163.935,109.959,163.618,110.039,163.315,110.039z M157.41,104.716c-0.794,0-1.424,0.197-1.887,0.589
				c-0.464,0.394-0.696,0.897-0.696,1.512c0,0.379,0.088,0.696,0.263,0.951c0.175,0.255,0.386,0.452,0.632,0.589
				c0.246,0.137,0.564,0.291,0.952,0.461c0.378,0.151,0.656,0.288,0.83,0.412c0.175,0.123,0.264,0.284,0.264,0.483
				c0,0.18-0.072,0.333-0.214,0.461c-0.143,0.127-0.341,0.191-0.596,0.191c-0.273,0-0.591-0.073-0.952-0.22
				c-0.359-0.146-0.686-0.342-0.979-0.589l-0.184,0.114l-0.213,1.477c0.729,0.284,1.434,0.425,2.115,0.425
				c0.578,0,1.064-0.101,1.461-0.305c0.398-0.204,0.694-0.468,0.887-0.795c0.193-0.327,0.291-0.679,0.291-1.057
				c0-0.369-0.087-0.68-0.263-0.93c-0.175-0.25-0.386-0.447-0.632-0.589c-0.247-0.142-0.558-0.288-0.937-0.44
				c-0.377-0.151-0.656-0.288-0.83-0.412c-0.175-0.123-0.263-0.283-0.263-0.482c0-0.17,0.066-0.314,0.199-0.433
				c0.132-0.118,0.313-0.178,0.539-0.178c0.463,0,0.979,0.185,1.548,0.554l0.226-0.071l0.255-1.392
				C158.66,104.824,158.054,104.716,157.41,104.716z M152.258,107.1l-0.029,0.171l-2.384,0.07c0.084-0.445,0.248-0.788,0.489-1.029
				c0.24-0.242,0.547-0.362,0.915-0.362C151.922,105.95,152.258,106.333,152.258,107.1z M153.563,108.363l0.271-0.27
				c0.037-0.266,0.057-0.525,0.057-0.781c0-0.814-0.223-1.45-0.667-1.909c-0.445-0.459-1.078-0.688-1.901-0.688
				c-1.004,0-1.8,0.308-2.386,0.923c-0.586,0.615-0.879,1.458-0.879,2.527c0,1.06,0.291,1.892,0.873,2.498
				c0.582,0.605,1.398,0.908,2.448,0.908c0.662,0,1.324-0.142,1.987-0.425l0.256-1.392l-0.156-0.1
				c-0.654,0.341-1.288,0.511-1.903,0.511c-1.098,0-1.684-0.595-1.759-1.788L153.563,108.363z M146.524,110.039
				c-0.266,0-0.456-0.064-0.568-0.192s-0.17-0.343-0.17-0.645l0.083-3.18h1.69l0.083-1.036l-0.056-0.1h-1.689l0.043-1.533
				l-0.128-0.114l-1.717,0.553v1.094h-0.837l-0.1,1.036l0.072,0.1h0.88l0.014,2.441l-0.071,1.179c0,1.116,0.639,1.74,1.916,1.873
				c0.502-0.057,0.995-0.208,1.476-0.454l0.185-1.122l-0.156-0.142C147.144,109.959,146.828,110.039,146.524,110.039z
				 M138.704,108.789l1.503-0.327l-0.027,1.051c-0.408,0.436-0.795,0.653-1.163,0.653c-0.237,0-0.421-0.069-0.554-0.205
				c-0.132-0.138-0.199-0.329-0.199-0.575C138.263,109.054,138.41,108.856,138.704,108.789z M139.626,104.701
				c-0.964,0-1.864,0.265-2.696,0.795l0.213,1.249l0.142,0.085c0.785-0.548,1.461-0.824,2.03-0.824c0.605,0,0.909,0.308,0.909,0.923
				v0.582l-2.172,0.412c-0.975,0.189-1.461,0.742-1.461,1.661c0,0.606,0.193,1.083,0.581,1.434c0.388,0.35,0.922,0.53,1.604,0.539
				c0.501-0.198,0.989-0.549,1.462-1.05h0.099c0.132,0.634,0.498,0.979,1.094,1.036c0.387-0.038,0.733-0.156,1.036-0.354l0.17-0.995
				l-0.142-0.113c-0.151,0.038-0.273,0.057-0.369,0.057c-0.123,0-0.208-0.031-0.255-0.093c-0.047-0.061-0.071-0.173-0.071-0.333
				c0,0.066,0.024-0.445,0.071-1.534c0.057-0.908,0.085-1.447,0.085-1.618c0-0.587-0.207-1.043-0.617-1.371
				C140.927,104.864,140.354,104.701,139.626,104.701z M136.134,109.996l-0.114-0.156h-3.065l-0.043-1.306l0.114-6.245h-1.959
				l0.1,6.416l-0.1,2.725h4.941L136.134,109.996z"/>
		</g>
		<path class="st1 leaf" d="M194.911,151.064v-48.418h47.927c24.63,0,45.519,20.216,45.519,44.848v47.414h-49.089
		C214.634,194.909,194.911,175.697,194.911,151.064z"/>
			
		<g class="image">	
		<path class="st7" d="M229.837,138.76v-4.288c0-0.593,0.467-1.072,1.044-1.072c0.577,0,1.043,0.479,1.043,1.072v4.288
			c0,0.593-0.467,1.071-1.043,1.071C230.305,139.833,229.837,139.354,229.837,138.76z M247.572,139.833
			c0.577,0,1.043-0.479,1.043-1.072v-4.288c0-0.593-0.466-1.072-1.043-1.072c-0.576,0-1.043,0.479-1.043,1.072v4.288
			C246.529,139.354,246.995,139.833,247.572,139.833z M259.046,159.128c0,4.736-3.737,8.576-8.346,8.576s-8.345-3.841-8.345-8.576
			c0-4.735,3.737-8.576,8.345-8.576C255.31,150.552,259.046,154.392,259.046,159.128z M256.96,159.128c0-3.547-2.808-6.433-6.26-6.433
			c-3.453,0-6.258,2.886-6.258,6.433c0,3.547,2.809,6.432,6.258,6.432C254.153,165.56,256.96,162.675,256.96,159.128z
			 M234.011,146.264h-4.174v4.288h4.174V146.264z M229.837,156.985h4.174v-4.289h-4.174V156.985z M236.097,150.552h4.173v-4.288
			h-4.173V150.552L236.097,150.552z M236.097,156.985h4.173v-4.289h-4.173V156.985L236.097,156.985z M227.753,158.914V144.12h22.948
			v4.288h2.087v-8.363c0-1.302-1.011-2.358-2.261-2.358h-0.869v1.072c0,1.18-0.936,2.144-2.087,2.144
			c-1.151,0-2.087-0.962-2.087-2.144v-1.072h-12.518v1.072c0,1.18-0.935,2.144-2.085,2.144c-1.151,0-2.086-0.962-2.086-2.144v-1.072
			h-0.869c-1.25,0-2.261,1.056-2.261,2.358v18.869c0,1.298,1.011,2.358,2.261,2.358h12.343v-2.145h-12.343
			C227.832,159.128,227.753,159.027,227.753,158.914z M246.529,150.552v-4.288h-4.172v4.288H246.529z M253.831,159.128h-3.13v-3.216
			c0-0.593-0.465-1.072-1.042-1.072c-0.577,0-1.044,0.479-1.044,1.072v4.288c0,0.592,0.467,1.072,1.044,1.072h4.172
			c0.576,0,1.042-0.479,1.042-1.072S254.407,159.128,253.831,159.128z"/>
		 </g>
	</g><!--latest-->
	<g class="links nav-group" onclick="window.top.location.href='http://www.google.com/';">
		<g class="circle-name">
					<circle class="st2" cx="565.004" cy="252.979" r="6.466"/>
					<g>
						<rect x="564.718" y="249.385" class="st6" width="0.863" height="7.762"/>
						<rect x="561.27" y="252.832" class="st6" width="7.759" height="0.862"/>
					</g>
					<path class="st5 text" d="M606.841,250.206c-0.796,0-1.426,0.197-1.889,0.59c-0.464,0.394-0.695,0.896-0.695,1.512
					c0,0.378,0.087,0.695,0.264,0.95c0.174,0.256,0.385,0.453,0.632,0.589c0.245,0.139,0.563,0.291,0.951,0.462
					c0.378,0.151,0.654,0.289,0.83,0.412c0.174,0.123,0.263,0.284,0.263,0.481c0,0.181-0.071,0.335-0.214,0.463
					c-0.142,0.127-0.341,0.191-0.597,0.191c-0.273,0-0.591-0.073-0.951-0.222c-0.359-0.146-0.688-0.342-0.98-0.588l-0.183,0.114
					l-0.213,1.476c0.728,0.283,1.434,0.426,2.114,0.426c0.577,0,1.064-0.103,1.462-0.306c0.398-0.202,0.693-0.469,0.888-0.794
					c0.192-0.328,0.291-0.68,0.291-1.059c0-0.371-0.087-0.679-0.265-0.931c-0.174-0.25-0.385-0.445-0.631-0.586
					c-0.246-0.144-0.559-0.29-0.937-0.442c-0.378-0.149-0.656-0.289-0.83-0.412c-0.175-0.123-0.263-0.284-0.263-0.481
					c0-0.171,0.066-0.315,0.198-0.435c0.133-0.118,0.313-0.178,0.54-0.178c0.463,0,0.979,0.186,1.548,0.554l0.226-0.07l0.256-1.392
					C608.09,250.314,607.483,250.206,606.841,250.206z M601.361,253.302l2.157-2.983h-1.988l-0.341,0.682l-1.646,2.34v0.128
					c0.557,1.088,1.278,2.257,2.157,3.507l0.198,0.085c0.851-0.104,1.438-0.189,1.76-0.257v-0.199
					C602.601,255.152,601.834,254.048,601.361,253.302z M599.445,254.01l0.113-7.053l-1.889,0.142l0.086,7.083l-0.099,2.738h1.888
					L599.445,254.01z M594.052,256.92h1.889l-0.072-2.896l0.043-1.888c0.008-0.615-0.172-1.086-0.547-1.412
					c-0.373-0.327-0.92-0.489-1.639-0.489c-0.606,0.199-1.18,0.539-1.718,1.021h-0.086v-0.964l-1.802,0.156l0.084,3.748l-0.1,2.724
					h1.891l-0.086-2.91v-1.646c0.482-0.406,0.938-0.609,1.363-0.609c0.596,0,0.894,0.351,0.894,1.051L594.052,256.92z M588.289,254.01
					l0.112-3.718l-1.887,0.157l0.083,3.748l-0.099,2.724h1.889L588.289,254.01z M587.521,247.084c-0.322,0-0.575,0.094-0.759,0.284
					c-0.185,0.189-0.276,0.44-0.276,0.751c0,0.312,0.082,0.553,0.248,0.724c0.166,0.17,0.403,0.255,0.717,0.255
					c0.313,0,0.558-0.094,0.738-0.283c0.178-0.19,0.27-0.445,0.27-0.766c0-0.304-0.083-0.541-0.249-0.71
					C588.045,247.17,587.815,247.084,587.521,247.084z M585.619,255.486l-0.113-0.156h-3.065l-0.043-1.306l0.114-6.246h-1.959
					l0.1,6.415l-0.1,2.726h4.941L585.619,255.486z"/>
				
		</g>
	 
		<path class="st3 leaf" d="M520.539,217.922l34.062,34.061l-34.062,34.063c-17.417,17.418-45.659,17.418-63.077,0l-34.063-34.063
		l34.063-34.061C474.879,200.503,503.12,200.503,520.539,217.922z"/>
		<g class="image">

			<path class="st7 " d="M504.894,251.145l-6.151,5.883c-3.395,3.251-8.902,3.251-12.297,0c-0.536-0.509-0.954-1.086-1.322-1.677
			l2.858-2.735c0.137-0.131,0.304-0.205,0.466-0.295c0.197,0.646,0.542,1.258,1.073,1.764c1.695,1.625,4.453,1.623,6.148,0
			l6.147-5.881c1.698-1.623,1.698-4.262,0-5.885c-1.693-1.622-4.452-1.622-6.147,0l-2.188,2.094c-1.774-0.661-3.686-0.837-5.547-0.577
			l4.659-4.458c3.396-3.25,8.902-3.25,12.3,0C508.288,242.626,508.288,247.895,504.894,251.145z M488.63,260.819l-2.187,2.093
			c-1.697,1.622-4.457,1.622-6.151,0c-1.695-1.623-1.695-4.263,0-5.885l6.151-5.883c1.695-1.623,4.453-1.623,6.148,0
			c0.529,0.508,0.875,1.118,1.073,1.764c0.161-0.09,0.327-0.164,0.463-0.293l2.859-2.733c-0.365-0.596-0.787-1.169-1.321-1.679
			c-3.395-3.25-8.902-3.25-12.298,0l-6.149,5.883c-3.396,3.251-3.396,8.517,0,11.768c3.396,3.248,8.902,3.248,12.299,0l4.66-4.461
			C492.316,261.658,490.404,261.478,488.63,260.819z"/>
		 </g>
	</g><!--links-->

	
		
	
	
		
	
	
		
	<g id="Layer_1_2_ logo" class="logo">
	<g>
		<path class="st7" d="M532.124,65.793V29.292h10.009v36.501H532.124z"/>
		<path class="st7" d="M547.431,65.793V29.292h28.259v7.064h-17.661v7.653h15.896v7.065h-15.896v7.653h17.661v7.064H547.431z"/>
		<path class="st7" d="M580.988,65.793V29.292h28.26v7.064h-17.662v7.653h16.484v7.065h-16.484v7.653h17.662v7.064H580.988z"/>
		<path class="st7" d="M615.135,65.793V29.292h27.671v7.064h-17.662v7.653h16.484v7.065h-16.484v7.653h17.662v7.064H615.135z"/>
		<path class="st7" d="M503.864,25.759c1.767,1.766,3.532,4.121,4.711,5.887l4.12,4.121c4.121,3.533,7.653,6.477,11.775,9.42l0,0
			c0.588,0.589,1.177,1.178,1.177,1.766c0,1.178-1.766,1.766-2.354,2.354c-8.243,5.888-15.308,12.953-21.194,21.195l-0.589,0.589
			c0,0-0.589,0-1.178,0c-0.589-0.589-0.589-1.177-1.178-1.177c-1.177-2.355-2.943-4.122-4.12-5.887
			c-1.179-0.589-1.767-1.767-2.355-2.355c-4.71-5.299-10.008-10.008-15.307-13.541c-0.589-0.589-1.178-1.178-0.589-1.766
			c0-0.589,0.589-1.178,1.177-1.178c7.065-4.71,13.541-11.186,18.84-17.662l2.943-4.709c0.589,0,1.178-0.589,1.767,0
			c0,0,0.589,0,0.589,0.588L503.864,25.759z M499.154,29.292c-1.177,1.177-2.943,2.354-4.12,3.532c-0.59,0-0.59,0.589-0.59,0.589
			c-3.532,2.943-7.064,6.476-9.419,10.008c-1.178,1.177-1.767,1.766-2.354,2.944c0,1.177,0,1.766,0.588,1.766
			c2.355,3.532,5.299,7.064,8.831,10.008c2.354,2.355,5.299,5.299,8.242,6.476c1.178,0.588,2.355,0,2.944-0.588
			c4.12-2.944,8.242-6.477,11.773-10.597c1.179-1.767,2.944-3.533,4.122-5.888c0-1.177,0-1.766-0.589-2.355
			c-2.943-4.121-5.888-7.653-10.008-11.186l0,0c-1.179-1.178-2.944-2.355-4.122-3.533C503.276,29.292,500.921,28.114,499.154,29.292
			z"/>
		<path class="st7" d="M504.453,31.646c4.71,4.121,9.42,8.831,12.952,14.13c0.589,0.589,1.178,1.766,0.589,2.355
			c-1.178,1.177-2.354,2.944-3.532,4.121l0,0c-2.943,3.533-5.887,6.477-9.42,9.42c-1.766,0.589-2.943,2.944-5.299,1.767
			c-4.709-3.533-9.419-8.243-13.541-12.952c-0.588-0.589-1.766-1.767-1.766-2.944c-0.589-1.177,0.589-2.355,1.178-3.533
			c4.121-5.298,9.42-10.008,14.129-13.541C501.51,29.292,503.276,31.058,504.453,31.646z M500.921,33.413l-0.589,1.766l-1.766,6.476
			c0,0,1.177,0,1.766,0l0,0l-0.589,7.653l0,0c0.589,0,1.767,0,2.355,0V48.72v-7.064l0,0h1.766
			C502.688,38.712,502.099,36.356,500.921,33.413L500.921,33.413z M493.268,44.01c-1.178,0.589-2.943,1.178-2.943,2.944
			c0.588,1.178,1.177,1.766,2.354,2.354c4.121,1.767,10.009,1.767,15.307,0.589c0.59-0.589,2.355-1.178,2.944-2.944
			c0-1.177-1.767-1.766-2.354-2.355l0,0c0,0,0.588,0,1.177,0l0,0c-1.767-0.589-3.532-1.177-4.71-1.177
			c0,0.588,0.589,1.177,0.589,1.766c0.589,0,1.178,0,1.178,0c1.177,0,2.354,0.589,2.354,1.766c0,0.589-1.178,1.178-1.767,1.766
			c-3.532,1.178-7.064,1.178-11.186,0.588c-0.588-0.588-2.355-1.177-2.355-2.354c0.589-1.766,2.355-1.766,4.122-2.355
			c-0.589-0.589-1.767-1.177-2.354-1.766C495.034,43.421,493.855,43.421,493.268,44.01z M499.743,51.075
			c0,2.355,0,5.298-0.589,7.653c1.178,0,2.355,0,3.533,0l-0.589-7.065v-0.588C501.51,51.075,500.921,51.075,499.743,51.075z"/>
		<path class="st7" d="M510.93,66.971v-0.588h0.589h0.589c0,0.588,0,0.588-0.589,0.588H510.93z M510.93,67.56h0.589l0.589,1.177
			h0.588l-0.588-1.177c0,0,0.588-0.589,0.588-1.177c0-0.589-0.588-0.589-1.177-0.589h-1.178v2.944h0.589V67.56z M513.873,66.971
			c0-1.178-1.178-2.355-2.354-2.355c-1.178,0-2.355,1.177-2.355,2.355c0,1.766,1.178,2.944,2.355,2.944
			C512.695,69.915,513.873,68.737,513.873,66.971z M513.284,66.971c0,1.177-0.589,2.355-1.766,2.355l0,0
			c-1.178,0-1.767-1.178-1.767-2.355c0-1.178,0.589-1.767,1.767-1.767C512.695,65.204,513.284,65.793,513.284,66.971z"/>
	</g>
</g>	
		
	<g class="nitcsb logo">
		<path class="st7" d="M402.596,439.714c-0.964,0-1.944-0.057-2.937-0.173l-0.128-4.599l0.043-3.024l4.726-0.085
			c2.613,0.483,3.919,1.734,3.919,3.749c0,1.333-0.49,2.355-1.469,3.065C405.769,439.358,404.386,439.714,402.596,439.714z
			 M406.855,423.785c0,2.188-1.064,3.564-3.192,4.131l-4.004-0.126l0.127-7.453h2.088c1.846,0,3.136,0.264,3.873,0.789
			C406.485,421.651,406.855,422.538,406.855,423.785z M408.601,429.407c1.335-0.567,2.363-1.406,3.087-2.513
			c0.723-1.106,1.086-2.397,1.086-3.874c0-2.214-0.779-3.909-2.342-5.088c-1.562-1.18-3.748-1.767-6.558-1.767l-9.752,0.041
			l0.299,19.247l-0.299,8.176c2.555,0.142,5.053,0.213,7.495,0.213c8.318,0,12.478-2.652,12.478-7.961
			C414.095,432.417,412.263,430.26,408.601,429.407z M381.731,415.866c-1.959,0-3.707,0.369-5.239,1.108
			c-1.533,0.737-2.725,1.752-3.576,3.045c-0.852,1.291-1.277,2.732-1.277,4.321c0,1.42,0.341,2.626,1.022,3.619
			c0.68,0.996,1.505,1.789,2.47,2.386s2.215,1.233,3.748,1.916c1.674,0.796,2.888,1.477,3.64,2.045
			c0.753,0.568,1.128,1.306,1.128,2.215c0,0.851-0.348,1.583-1.043,2.192c-0.696,0.61-1.668,0.915-2.917,0.915
			c-1.051,0-2.25-0.262-3.599-0.787s-2.589-1.285-3.725-2.278l-0.64,0.34l-0.809,5.364c2.726,1.164,5.437,1.748,8.133,1.748
			c2.045,0,3.847-0.376,5.408-1.129s2.768-1.775,3.619-3.065c0.852-1.292,1.278-2.719,1.278-4.279c0-1.449-0.349-2.669-1.044-3.662
			c-0.696-0.995-1.533-1.797-2.513-2.407c-0.979-0.608-2.25-1.27-3.812-1.979c-1.617-0.768-2.804-1.435-3.555-2.001
			c-0.754-0.567-1.129-1.263-1.129-2.087c0-0.795,0.34-1.498,1.021-2.107c0.681-0.61,1.59-0.916,2.725-0.916
			c0.854,0,1.796,0.199,2.833,0.598c1.036,0.397,2.038,0.936,3.002,1.617l0.852-0.341l0.937-4.983
			C386.373,416.335,384.06,415.866,381.731,415.866z M355.458,415.866c-4.172,0-7.403,1.25-9.686,3.748
			c-2.286,2.499-3.429,6.019-3.429,10.561c0,4.459,1.073,7.879,3.217,10.263c2.144,2.386,5.257,3.576,9.346,3.576
			c2.385,0,4.655-0.496,6.813-1.491l0.468-4.896l-0.512-0.298c-1.932,1.219-4.031,1.831-6.301,1.831
			c-4.629,0-6.942-3.208-6.942-9.624c0-5.935,2.257-8.9,6.771-8.9c2.187,0,4.174,0.64,5.962,1.916l0.469-0.213l1.02-4.812
			C360.525,416.42,358.126,415.866,355.458,415.866z M341.874,416.675l-0.339-0.469h-19.461l-0.383,4.301l0.383,0.469l5.237-0.257
			h1.704l0.212,14.735l-0.298,8.176h5.792l-0.256-8.688l0.214-14.224h1.702l5.153,0.257L341.874,416.675z M317.345,434.943
			l0.341-18.736h-5.876l0.298,19.247l-0.298,8.176h5.791L317.345,434.943z M304.87,435.157l0.341-19.036l-5.365,0.34l0.171,18.311
			h-0.383l-11.158-18.565h-6.217l0.256,19.334l-0.298,8.09h5.279l-0.212-9.453l0.043-9.113h0.383l11.157,18.566h6.217
			L304.87,435.157z"/>
	</g> <!--nitcsb-->


	<!--logo-->
</svg>
